# xmcd
#
# Track frame offsets:
#	150
#	20755
#	32830
#	43425
#	53960
#	68210
#	82582
#	95780
#	108042
#	120260
#	131825
#	143017
#	160780
#	173230
#	184897
#	200477
#	210187
#	222490
#	238487
#	250752
#	264042
#	283070
#
# Disc length: 4438 seconds
#
# Revision: 2
# Processed by: cddbd v1.5.1PL2 Copyright (c) Steve Scherf et al.
# Submitted via: audiograbber 1.82.02
#
DISCID=41115416
DTITLE=Creedence Clearwater Revival - 22 Golden Classics
DYEAR=1900
DGENRE=Country
TTITLE0=Susie Q
TTITLE1=Have You Ever Seen The Rain
TTITLE2=Bad Moon Rising
TTITLE3=Fortunate Son
TTITLE4=Proud Mary
TTITLE5=Lodi
TTITLE6=It Came Out Of The Sky
TTITLE7=Hey Tonight
TTITLE8=Up Around The Bend
TTITLE9=Looking Out My Back Door
TTITLE10=Who'll Stop The Rain
TTITLE11=Its Just A Thought
TTITLE12=Down On The Corner
TTITLE13=Green River
TTITLE14=Before You Accuse Me
TTITLE15=Travelin' Band
TTITLE16=Commotion
TTITLE17=Long As I Can See The Light
TTITLE18=Golly Golly Miss Molly
TTITLE19=Cotton Fields
TTITLE20=The Midnight Special
TTITLE21=I Heard It Through The Grapevine
EXTD=
EXTT0=
EXTT1=
EXTT2=
EXTT3=
EXTT4=
EXTT5=
EXTT6=
EXTT7=
EXTT8=
EXTT9=
EXTT10=
EXTT11=
EXTT12=
EXTT13=
EXTT14=
EXTT15=
EXTT16=
EXTT17=
EXTT18=
EXTT19=
EXTT20=
EXTT21=
PLAYORDER=
